name rise36.2859peak64.2979fall75.1499.mot
datacolumns 19
datarows 11
range 20.94991800000000 20.96660000000000
endheader
time	ground_force1_vx	ground_force1_vy	ground_force1_vz	ground_force1_px	ground_force1_py	ground_force1_pz	ground_force2_vx	ground_force2_vy	ground_force2_vz	ground_force2_px	ground_force2_py	ground_force2_pz	ground_torque1_x	ground_torque1_y	ground_torque1_z	ground_torque2_x	ground_torque2_y	ground_torque2_z	
20.94991800000000	-33.00099400000000	789.48205499999995	61.25832700000000	0.19922000000000	0.00000000000000	0.09490900000000	-14.45958600000000	67.38722400000000	8.03133700000000	0.44500200000000	0.00000000000000	-0.09945500000000	0.00000000000000	31.17728100000000	0.00000000000000	0.00000000000000	4.63501900000000	0.00000000000000	
20.95158400000000	-33.20842500000000	786.64195600000005	60.98348700000000	0.19860100000000	0.00000000000000	0.09481100000000	-14.71531900000000	72.48851999999999	8.33694300000000	0.44728100000000	0.00000000000000	-0.09969000000000	0.00000000000000	30.98531200000000	0.00000000000000	0.00000000000000	4.90270400000000	0.00000000000000	
20.95325800000000	-33.42999500000000	783.70121300000005	60.68032600000000	0.19798400000000	0.00000000000000	0.09470800000000	-14.78488200000000	77.34429200000000	8.56069300000000	0.44935900000000	0.00000000000000	-0.09992900000000	0.00000000000000	30.78748700000000	0.00000000000000	0.00000000000000	5.13287000000000	0.00000000000000	
20.95492100000000	-33.66623000000000	780.66098999999997	60.34886100000000	0.19736700000000	0.00000000000000	0.09460200000000	-14.68461000000000	81.98782100000000	8.70857700000000	0.45125400000000	0.00000000000000	-0.10017200000000	0.00000000000000	30.58398900000000	0.00000000000000	0.00000000000000	5.32738100000000	0.00000000000000	
20.95658600000000	-33.91760700000000	777.52243199999998	59.98917200000000	0.19675100000000	0.00000000000000	0.09449100000000	-14.43478900000000	86.46577400000000	8.78857500000000	0.45298400000000	0.00000000000000	-0.10041800000000	0.00000000000000	30.37501200000000	0.00000000000000	0.00000000000000	5.48927900000000	0.00000000000000	
20.95824900000000	-34.18455100000000	774.28664900000001	59.60140800000000	0.19613500000000	0.00000000000000	0.09437500000000	-14.05765100000000	90.83282900000000	8.80974300000000	0.45456200000000	0.00000000000000	-0.10066700000000	0.00000000000000	30.16075700000000	0.00000000000000	0.00000000000000	5.62233100000000	0.00000000000000	
20.95991700000000	-34.46743400000000	770.95471899999995	59.18577800000000	0.19551900000000	0.00000000000000	0.09425600000000	-13.57556000000000	95.14656200000000	8.78137200000000	0.45600300000000	0.00000000000000	-0.10091900000000	0.00000000000000	29.94143600000000	0.00000000000000	0.00000000000000	5.73058400000000	0.00000000000000	
20.96159100000000	-34.76657200000000	767.52766799999995	58.74255900000000	0.19490200000000	0.00000000000000	0.09413200000000	-13.00949200000000	99.46296400000000	8.71226000000000	0.45731700000000	0.00000000000000	-0.10117300000000	0.00000000000000	29.71726500000000	0.00000000000000	0.00000000000000	5.81798900000000	0.00000000000000	
20.96325200000000	-35.08222000000000	764.00646900000004	58.27208900000000	0.19428500000000	0.00000000000000	0.09400400000000	-12.37788500000000	103.83282600000000	8.61016600000000	0.45851500000000	0.00000000000000	-0.10143000000000	0.00000000000000	29.48846800000000	0.00000000000000	0.00000000000000	5.88808500000000	0.00000000000000	
20.96491700000000	-35.41457500000000	760.39202799999998	57.77476700000000	0.19366600000000	0.00000000000000	0.09387100000000	-11.69587900000000	108.29912500000000	8.48141500000000	0.45960700000000	0.00000000000000	-0.10168800000000	0.00000000000000	29.25527200000000	0.00000000000000	0.00000000000000	5.94378200000000	0.00000000000000	
20.96660000000000	-35.76376600000000	756.68518600000004	57.25105400000000	0.19304600000000	0.00000000000000	0.09373500000000	-10.97493300000000	112.89542700000000	8.33070300000000	0.46060000000000	0.00000000000000	-0.10194800000000	0.00000000000000	29.01791000000000	0.00000000000000	0.00000000000000	5.98723000000000	0.00000000000000	
